<?xml version="1.0" standalone="no"?>
<!DOCTYPE svg PUBLIC "-//W3C//DTD SVG 20010904//EN"
 "http://www.w3.org/TR/2001/REC-SVG-20010904/DTD/svg10.dtd">
<svg version="1.0" xmlns="http://www.w3.org/2000/svg"
 width="160.000000pt" height="160.000000pt" viewBox="0 0 160.000000 160.000000"
 preserveAspectRatio="xMidYMid meet">
<metadata>
Created by potrace 1.14, written by Peter Selinger 2001-2017
</metadata>
<g transform="translate(0.000000,160.000000) scale(0.100000,-0.100000)"
fill="#000000" stroke="none">
<path d="M315 1566 c-52 -17 -118 -51 -134 -69 -6 -8 -21 -13 -32 -10 -14 4
-18 2 -13 -10 3 -10 -7 -31 -25 -54 -40 -51 -63 -116 -64 -183 0 -58 24 -120
46 -119 6 0 48 31 92 69 44 37 82 67 84 65 2 -2 -13 -23 -32 -46 -52 -60 -114
-186 -138 -276 -25 -98 -28 -250 -5 -348 22 -95 95 -239 155 -306 l49 -54 21
19 c19 18 23 18 37 4 14 -14 8 -24 -56 -102 -47 -57 -78 -86 -92 -86 -17 0
-18 -2 -8 -15 23 -28 48 -16 109 52 l60 68 28 -18 c117 -76 265 -120 403 -119
125 0 217 23 337 82 l98 50 58 -65 c32 -36 67 -65 77 -65 24 0 39 22 19 29
-17 5 -88 81 -129 137 -26 37 -28 43 -15 54 13 10 19 9 35 -5 20 -18 21 -18
46 6 69 64 152 218 181 337 24 99 21 248 -6 346 -26 94 -87 216 -138 275 -19
23 -34 44 -32 46 3 2 42 -28 88 -66 46 -39 88 -68 95 -66 21 7 39 61 38 117
-1 68 -23 133 -62 182 -17 20 -30 44 -30 52 0 9 -7 16 -14 16 -8 0 -34 13 -58
29 -49 33 -135 61 -188 61 -47 0 -123 -26 -145 -50 -16 -17 -15 -20 15 -47 18
-15 37 -28 43 -28 7 0 31 -12 53 -27 29 -19 42 -34 42 -50 0 -23 -2 -22 -83
18 -77 38 -192 70 -277 77 -35 3 -38 1 -38 -24 0 -15 -4 -31 -10 -34 -6 -4
-10 7 -10 24 0 29 -2 31 -40 31 -70 0 -190 -32 -276 -75 -46 -22 -84 -38 -84
-35 0 3 38 36 85 74 47 39 85 73 85 76 0 14 -40 42 -77 56 -47 16 -116 17
-168 0z m-35 -181 c0 -9 -6 -31 -14 -49 -16 -39 -47 -50 -97 -36 -28 8 -36 7
-46 -7 -7 -9 -15 -14 -19 -11 -8 8 56 78 91 100 37 22 85 24 85 3z m387 -21
c-3 -3 -12 -4 -19 -1 -8 3 -5 6 6 6 11 1 17 -2 13 -5z m-68 -18 c-9 -8 -99
-44 -99 -40 0 6 81 43 94 44 5 0 7 -2 5 -4z m400 -26 c145 -52 278 -172 345
-313 43 -91 58 -156 58 -256 1 -102 -15 -167 -62 -266 -48 -100 -110 -170
-206 -234 -348 -233 -815 -51 -920 359 -23 89 -15 250 16 339 64 181 230 333
420 386 82 22 265 14 349 -15z m249 -29 c-14 -23 -38 -29 -38 -9 0 6 8 20 17
30 22 24 39 8 21 -21z m-924 -138 c-53 -65 -115 -191 -134 -270 -7 -29 -14
-53 -17 -53 -3 0 -3 26 -1 58 6 80 55 178 130 257 33 36 62 65 65 65 2 0 -17
-26 -43 -57z m-152 -176 c-26 -74 -50 -107 -36 -49 9 37 53 136 58 131 3 -2
-8 -39 -22 -82z"/>
<path d="M790 1174 c0 -28 4 -44 11 -42 6 2 10 7 10 11 -1 4 -1 23 -1 42 0 19
-4 35 -10 35 -5 0 -10 -21 -10 -46z"/>
<path d="M1011 1137 c-11 -19 -21 -39 -21 -46 0 -22 18 -10 40 25 28 49 11 68
-19 21z"/>
<path d="M572 1119 c22 -39 32 -47 42 -31 7 12 -30 65 -49 68 -13 2 -11 -5 7
-37z"/>
<path d="M1048 954 c-89 -64 -180 -134 -202 -155 -21 -22 -43 -39 -48 -39 -5
0 -24 14 -41 31 -37 37 -187 139 -204 139 -7 0 -13 -8 -13 -17 1 -20 160 -133
186 -133 9 0 30 -15 47 -32 17 -18 27 -27 23 -20 -4 6 -3 12 3 12 5 0 11 -6
14 -12 2 -7 8 -1 12 15 5 18 16 29 33 34 15 3 81 46 148 94 95 68 124 84 128
72 5 -13 12 -11 48 10 50 29 65 67 18 42 -46 -24 -47 -17 -2 15 26 20 39 36
35 45 -3 8 -9 15 -13 15 -4 0 -82 -52 -172 -116z"/>
<path d="M396 981 c-7 -11 54 -52 66 -45 14 9 8 19 -21 37 -33 20 -38 20 -45
8z"/>
<path d="M296 751 c15 -16 116 -18 121 -3 4 9 -13 12 -63 12 -43 0 -64 -4 -58
-9z"/>
<path d="M1190 745 c0 -17 17 -18 98 -9 77 10 63 24 -23 24 -60 0 -75 -3 -75
-15z"/>
<path d="M402 534 c-30 -18 -41 -29 -34 -36 12 -12 102 35 102 52 0 17 -23 11
-68 -16z"/>
<path d="M1130 551 c0 -10 155 -101 171 -101 25 0 1 23 -66 64 -74 45 -105 56
-105 37z"/>
<path d="M547 335 c-26 -47 -47 -88 -47 -90 0 -3 7 -5 16 -5 10 0 14 5 10 16
-3 8 -2 13 2 10 11 -6 94 133 87 145 -12 19 -23 7 -68 -76z"/>
<path d="M990 406 c0 -22 84 -166 98 -166 20 0 14 17 -34 100 -43 76 -64 97
-64 66z"/>
<path d="M792 298 l1 -63 7 60 c6 55 7 53 8 -35 0 -65 -2 -89 -9 -75 l-9 20 3
-20 c1 -11 7 -20 12 -20 6 0 11 42 13 98 2 82 0 97 -13 97 -12 0 -15 -12 -13
-62z"/>
<path d="M720 1540 c-28 -17 4 -30 78 -31 76 -1 92 4 92 27 0 11 -17 14 -77
14 -43 0 -85 -5 -93 -10z"/>
<path d="M1154 1411 c7 -11 46 -35 46 -28 0 3 -12 12 -26 22 -15 9 -23 12 -20
6z"/>
</g>
</svg>
